<?xml version="1.0" encoding="UTF-8"?><svg id="Layer_2" xmlns="http://www.w3.org/2000/svg" viewBox="0 0 227.49 71.38"><defs><style>.cls-1{fill:#fff;}</style></defs><g id="home"><g><path class="cls-1" d="M134.23,27.4h-3.99v7.88h3.99c3.21,.02,4.65-1.36,4.65-3.89s-1.44-3.99-4.65-3.99Z"/><path class="cls-1" d="M191.79,0H35.69C15.98,0,0,15.98,0,35.69H0c0,19.71,15.98,35.69,35.69,35.69H191.79c19.71,0,35.69-15.98,35.69-35.69h0c0-19.71-15.98-35.69-35.69-35.69ZM71.97,47.88c-5.51,0-9.01-2.65-9.19-7.33h4.19c.2,2.47,2.27,3.68,4.97,3.7,2.8-.02,4.73-1.37,4.74-3.4-.02-1.87-1.72-2.65-4.29-3.3l-2.68-.69c-3.89-1.01-6.31-2.98-6.31-6.38,0-4.19,3.71-6.97,8.7-6.97s8.44,2.83,8.51,6.84h-4.09c-.21-2.04-1.93-3.22-4.48-3.21-2.7-.02-4.3,1.29-4.32,3.08-.02,2,2.09,2.81,4.06,3.27l2.22,.59c3.53,.82,6.94,2.68,6.94,6.8s-3.29,7-8.96,7Zm23.03-.36h-4.25V27.4h-7.33v-3.57h18.88v3.57h-7.3v20.12Zm23.63,0l-1.98-5.86h-8.92l-1.96,5.86h-4.55l8.34-23.69h5.23l8.38,23.69h-4.55Zm20.7,0l-4.65-8.67h-4.45v8.67h-4.25V23.83h8.9c5.43,0,8.33,3.04,8.34,7.56-.02,3.22-1.49,5.61-4.27,6.74l5.12,9.39h-4.74Zm25.38-20.12h-7.3v20.12h-4.25V27.4h-7.33v-3.57h18.88v3.57Z"/><polygon class="cls-1" points="112.09 28.67 108.88 38.23 115.5 38.23 112.28 28.67 112.09 28.67"/></g></g></svg>